<svg width="20" height="20" viewBox="0 0 20 20" fill="none" xmlns="http://www.w3.org/2000/svg">
<path d="M10.0003 1.6665C5.39913 1.6665 1.66699 5.49152 1.66699 10.2106C1.66699 13.9856 4.05509 17.188 7.3658 18.3178C7.78247 18.3975 7.91699 18.1321 7.91699 17.9071V16.3166C5.59913 16.8332 5.1158 15.3082 5.1158 15.3082C4.73723 14.3201 4.1908 14.0582 4.1908 14.0582C3.43485 13.5273 4.24794 13.5392 4.24794 13.5392C5.08485 13.5987 5.52533 14.4201 5.52533 14.4201C6.26818 15.7261 7.47413 15.3487 7.95033 15.1297C8.02413 14.5785 8.2408 14.2011 8.48009 13.9868C6.6289 13.7701 4.68247 13.038 4.68247 9.76536C4.68247 8.83083 5.00866 8.07011 5.5408 7.4713C5.45509 7.25582 5.16937 6.38677 5.62294 5.20938C5.62294 5.20938 6.32294 4.98081 7.91461 6.08557C8.59371 5.8962 9.29532 5.79969 10.0003 5.79867C10.7061 5.79977 11.4085 5.89628 12.0884 6.08557C13.6789 4.98081 14.3777 5.21057 14.3777 5.21057C14.8301 6.38677 14.5444 7.25701 14.4598 7.47249C14.9944 8.07011 15.317 8.83202 15.317 9.76536C15.317 13.0463 13.3682 13.7689 11.5122 13.9797C11.8098 14.2451 12.0837 14.7654 12.0837 15.563V17.9083C12.0837 18.1344 12.217 18.4011 12.6396 18.3178C15.9491 17.1868 18.3337 13.9844 18.3337 10.2106C18.3337 5.49152 14.6027 1.6665 10.0003 1.6665Z" fill="#464A53"/>
</svg>
